<?xml version="1.0" encoding="UTF-8" standalone="no"?>
<!-- Created with Inkscape (http://www.inkscape.org/) -->

<svg
   xmlns:dc="http://purl.org/dc/elements/1.1/"
   xmlns:cc="http://creativecommons.org/ns#"
   xmlns:rdf="http://www.w3.org/1999/02/22-rdf-syntax-ns#"
   xmlns:svg="http://www.w3.org/2000/svg"
   xmlns="http://www.w3.org/2000/svg"
   xmlns:sodipodi="http://sodipodi.sourceforge.net/DTD/sodipodi-0.dtd"
   xmlns:inkscape="http://www.inkscape.org/namespaces/inkscape"
   id="svg3004"
   version="1.1"
   inkscape:version="0.48.2 r9819"
   width="744.09448"
   height="1052.3622"
   xml:space="preserve"
   sodipodi:docname="inscer-background.svg"><metadata
     id="metadata3010"><rdf:RDF><cc:Work
         rdf:about=""><dc:format>image/svg+xml</dc:format><dc:type
           rdf:resource="http://purl.org/dc/dcmitype/StillImage" /><dc:title></dc:title></cc:Work></rdf:RDF></metadata><defs
     id="defs3008" /><sodipodi:namedview
     pagecolor="#ffffff"
     bordercolor="#666666"
     borderopacity="1"
     objecttolerance="10"
     gridtolerance="10"
     guidetolerance="10"
     inkscape:pageopacity="0"
     inkscape:pageshadow="2"
     inkscape:window-width="1956"
     inkscape:window-height="1279"
     id="namedview3006"
     showgrid="false"
     inkscape:zoom="1.224076"
     inkscape:cx="346.19127"
     inkscape:cy="626.16015"
     inkscape:window-x="79"
     inkscape:window-y="48"
     inkscape:window-maximized="0"
     inkscape:current-layer="g3012"
     showguides="true"
     inkscape:guide-bbox="true" /><g
     id="g3012"
     inkscape:groupmode="layer"
     inkscape:label="Instituto do Cérebro do RS - policromático redução"
     transform="matrix(1.25,0,0,-1.25,0,1052.3622)"><g
       id="g3014"
       transform="matrix(2.8008582,0,0,2.8023575,6.0249437,142.75851)"
       style="opacity:0.3"><path
         d="m 103.719,136.205 0.097,-0.078 c 20.727,22.746 63.743,41.39 81.532,31.715 2.476,-1.223 4.797,-3.41 6.945,-6.348 -7.234,26.246 -41.238,68.867 -72.231,62.34 -7.445,-1.567 -12.746,-11.16 -16.179,-23.465 6.293,-23.777 5.301,-58.019 -0.164,-64.164"
         style="fill:#73d1e2;fill-opacity:1;fill-rule:nonzero;stroke:none"
         id="path3016"
         inkscape:connector-curvature="0" /><path
         d="m 102.719,91.182 c -4.414,4.91 -7.719,10.031 -9.453,15.144 -3.176,9.363 1.57,19.899 10.449,29.688 l -0.086,0.089 c -0.113,-0.121 -0.231,-0.234 -0.352,-0.332 -19.351,-15.742 -73.125,-8.875 -88.015,10.317 -2.313,2.984 -2.551,7.922 -1.153,13.906 C 1.184,140.275 -4.547,93.014 4.172,69.889 3.195,73.127 2.613,76.217 2.516,79.08 1.66,103.721 85.531,108.939 102.719,91.182"
         style="fill:#f79048;fill-opacity:1;fill-rule:nonzero;stroke:none"
         id="path3018"
         inkscape:connector-curvature="0" /><path
         d="m 103.062,90.803 c 0.211,-0.239 0.415,-0.489 0.618,-0.75 0.011,0.011 0.023,0.023 0.035,0.039 -0.223,0.234 -0.438,0.472 -0.653,0.711"
         style="fill:#fbdc0a;fill-opacity:1;fill-rule:nonzero;stroke:none"
         id="path3020"
         inkscape:connector-curvature="0" /><path
         d="m 22.078,167.842 c 17.801,9.675 60.836,-8.981 81.551,-31.739 0.031,0.036 0.059,0.067 0.09,0.102 -0.145,0.117 -0.293,0.23 -0.434,0.352 -5.68,4.835 -6.168,39.589 0.598,63.812 -3.18,12.008 -8.211,21.344 -15.465,23.047 -31.949,7.496 -68.293,-37.672 -74.309,-63.422 2.418,3.691 5.09,6.426 7.969,7.848"
         style="fill:#feec71;fill-opacity:1;fill-rule:nonzero;stroke:none"
         id="path3022"
         inkscape:connector-curvature="0" /><path
         d="m 192.578,57.338 c -23,-7.805 -67.555,10.058 -88.828,32.711 -0.012,-0.016 -0.023,-0.028 -0.035,-0.047 7.691,-10.254 7.496,-40.395 0,-62.992 5.265,-15.887 14.137,-28.039 26.406,-26.942 25.586,2.301 64.656,41.735 73.141,69.836 -2.407,-6.394 -5.918,-10.949 -10.684,-12.566"
         style="fill:#3bbb86;fill-opacity:1;fill-rule:nonzero;stroke:none"
         id="path3024"
         inkscape:connector-curvature="0" /><path
         d="m 103.715,90.002 c -0.016,0.019 -0.024,0.035 -0.035,0.051 C 82.406,67.396 37.852,49.533 14.852,57.338 10.086,58.951 6.578,63.502 4.172,69.889 12.664,41.787 51.727,2.365 77.305,0.068 c 12.269,-1.097 21.14,11.059 26.41,26.942 -7.496,22.597 -7.692,52.738 0,62.992"
         style="fill:#f1493c;fill-opacity:1;fill-rule:nonzero;stroke:none"
         id="path3026"
         inkscape:connector-curvature="0" /><path
         d="m 192.293,161.494 c 1.996,-7.266 1.949,-13.277 -0.785,-16.644 -15.168,-18.676 -68.235,-24.375 -87.692,-8.723 -0.035,-0.039 -0.07,-0.078 -0.101,-0.113 8.883,-9.789 13.625,-20.325 10.449,-29.688 -1.738,-5.117 -5.043,-10.234 -9.453,-15.148 17.176,17.761 101.055,12.547 100.207,-12.098 -0.106,-2.859 -0.68,-5.941 -1.656,-9.176 8.937,23.742 2.668,72.879 -10.969,91.59"
         style="fill:#4dc3b2;fill-opacity:1;fill-rule:nonzero;stroke:none"
         id="path3028"
         inkscape:connector-curvature="0" /><path
         d="m 103.75,90.049 c 0.203,0.269 0.41,0.523 0.621,0.758 -0.219,-0.239 -0.433,-0.481 -0.656,-0.715 0.012,-0.016 0.023,-0.028 0.035,-0.043"
         style="fill:#fbdc0a;fill-opacity:1;fill-rule:nonzero;stroke:none"
         id="path3030"
         inkscape:connector-curvature="0" /><path
         d="m 104.371,90.807 c 0.113,0.125 0.227,0.246 0.34,0.371 -0.035,-0.036 -0.074,-0.075 -0.113,-0.11 -0.078,-0.078 -0.153,-0.172 -0.227,-0.261"
         style="fill:#fbdc0a;fill-opacity:1;fill-rule:nonzero;stroke:none"
         id="path3032"
         inkscape:connector-curvature="0" /><path
         d="m 102.719,91.182 c 0.113,-0.125 0.23,-0.254 0.343,-0.379 -0.078,0.086 -0.152,0.183 -0.23,0.265 -0.035,0.039 -0.078,0.074 -0.113,0.114"
         style="fill:#fbdc0a;fill-opacity:1;fill-rule:nonzero;stroke:none"
         id="path3034"
         inkscape:connector-curvature="0" /><path
         d="m 103.277,135.771 c 0.121,0.098 0.239,0.211 0.352,0.332 -20.719,22.758 -63.75,41.414 -81.551,31.739 -2.879,-1.422 -5.551,-4.157 -7.969,-7.848 -1.398,-5.984 -1.16,-10.922 1.153,-13.906 14.89,-19.192 68.664,-26.059 88.015,-10.317"
         style="fill:#fabd2a;fill-opacity:1;fill-rule:nonzero;stroke:none"
         id="path3036"
         inkscape:connector-curvature="0" /><path
         d="m 103.68,90.053 c -0.278,0.359 -0.555,0.707 -0.852,1.015 C 85.895,108.963 1.66,103.775 2.516,79.08 2.613,76.217 3.191,73.127 4.172,69.889 6.578,63.502 10.086,58.951 14.848,57.338 37.852,49.533 82.406,67.396 103.68,90.053"
         style="fill:#ee2333;fill-opacity:1;fill-rule:nonzero;stroke:none"
         id="path3038"
         inkscape:connector-curvature="0" /><path
         d="m 185.348,167.842 c -17.793,9.675 -60.805,-8.969 -81.528,-31.715 19.453,-15.652 72.52,-9.953 87.688,8.723 2.734,3.367 2.781,9.378 0.781,16.644 -2.144,2.938 -4.465,5.125 -6.941,6.348"
         style="fill:#26b6ac;fill-opacity:1;fill-rule:nonzero;stroke:none"
         id="path3040"
         inkscape:connector-curvature="0" /><path
         d="m 104.598,91.072 c -0.293,-0.312 -0.575,-0.656 -0.848,-1.019 21.27,-22.657 65.828,-40.52 88.824,-32.715 4.77,1.617 8.278,6.172 10.688,12.566 0.976,3.231 1.55,6.317 1.652,9.176 0.852,24.695 -83.379,29.883 -100.316,11.992"
         style="fill:#12af97;fill-opacity:1;fill-rule:nonzero;stroke:none"
         id="path3042"
         inkscape:connector-curvature="0" /><path
         d="m 103.715,27.01 c 7.496,22.597 7.691,52.734 0,62.992 -7.692,-10.258 -7.496,-40.395 0,-62.992"
         style="fill:#cd4c2f;fill-opacity:1;fill-rule:nonzero;stroke:none"
         id="path3044"
         inkscape:connector-curvature="0" /><path
         d="m 114.164,106.326 c 3.176,9.363 -1.57,19.899 -10.449,29.688 -8.879,-9.789 -13.625,-20.325 -10.449,-29.688 1.867,-5.496 5.535,-10.992 10.449,-16.238 4.914,5.246 8.582,10.742 10.449,16.238"
         style="fill:#51aa85;fill-opacity:1;fill-rule:nonzero;stroke:none"
         id="path3046"
         inkscape:connector-curvature="0" /><path
         d="m 103.719,136.205 c 5.465,6.145 6.457,40.387 0.164,64.164 -6.762,-24.223 -6.278,-58.973 -0.598,-63.812 0.141,-0.122 0.289,-0.235 0.434,-0.352"
         style="fill:#bfda6f;fill-opacity:1;fill-rule:nonzero;stroke:none"
         id="path3048"
         inkscape:connector-curvature="0" /></g></g></svg>